<svg width="30" height="30" viewBox="0 0 30 30" fill="none" xmlns="http://www.w3.org/2000/svg">
<circle cx="15" cy="15" r="15" fill="url(#paint0_linear_5_13)"/>
<path d="M9.25781 19.5508C9.25781 19.541 9.25293 19.5312 9.24316 19.5215C9.24316 19.5117 9.24316 19.502 9.24316 19.4922C9.24316 19.3262 9.33105 19.2432 9.50684 19.2432C9.59473 19.2432 9.69238 19.2871 9.7998 19.375C10.3271 19.873 10.9131 20.2686 11.5576 20.5615C12.2021 20.8545 12.9053 21.001 13.667 21.001C13.8721 21.001 14.1064 20.9814 14.3701 20.9424C14.6338 20.8936 14.8828 20.8203 15.1172 20.7227C15.3516 20.6152 15.5469 20.4785 15.7031 20.3125C15.8691 20.1465 15.9521 19.9365 15.9521 19.6826C15.9521 19.3994 15.8838 19.1455 15.7471 18.9209C15.6104 18.6963 15.4297 18.5059 15.2051 18.3496C15.1172 18.291 14.9854 18.1934 14.8096 18.0566C14.6338 17.9199 14.4336 17.7637 14.209 17.5879C13.9844 17.4121 13.75 17.2266 13.5059 17.0312C13.2617 16.8262 13.0273 16.6357 12.8027 16.46C12.5879 16.2744 12.3926 16.1084 12.2168 15.9619C12.041 15.8154 11.9092 15.7031 11.8213 15.625C11.2451 15.1953 10.7861 14.7607 10.4443 14.3213C10.1123 13.8818 9.8584 13.4229 9.68262 12.9443C9.50684 12.4658 9.39453 11.9727 9.3457 11.4648C9.29688 10.9473 9.27246 10.4004 9.27246 9.82422C9.27246 8.96484 9.47754 8.14941 9.8877 7.37793C10.2979 6.60645 10.874 5.9375 11.6162 5.37109C12.3682 4.79492 13.2666 4.34082 14.3115 4.00879C15.3564 3.66699 16.5186 3.49609 17.7979 3.49609C17.9541 3.49609 18.1885 3.51562 18.501 3.55469C18.8135 3.58398 19.1553 3.6377 19.5264 3.71582C19.9072 3.79395 20.293 3.90137 20.6836 4.03809C21.0742 4.1748 21.4307 4.35059 21.7529 4.56543C21.8604 4.64355 21.9434 4.72168 22.002 4.7998C22.0703 4.87793 22.1143 5 22.1338 5.16602C22.1826 5.95703 22.2217 6.73828 22.251 7.50977C22.2803 8.27148 22.3193 9.08203 22.3682 9.94141C22.3682 10.1074 22.334 10.2197 22.2656 10.2783C22.1973 10.3271 22.1094 10.3516 22.002 10.3516C21.8945 10.3516 21.8115 10.3223 21.7529 10.2637C21.4697 9.98047 21.1768 9.70215 20.874 9.42871C20.5713 9.15527 20.2539 8.91602 19.9219 8.71094C19.5898 8.49609 19.2334 8.3252 18.8525 8.19824C18.4814 8.07129 18.0762 8.00781 17.6367 8.00781C17.373 8.00781 17.1094 8.03223 16.8457 8.08105C16.582 8.12012 16.3428 8.19824 16.1279 8.31543C15.9131 8.43262 15.7373 8.59375 15.6006 8.79883C15.4736 9.00391 15.4102 9.2627 15.4102 9.5752C15.4102 9.90723 15.4492 10.1953 15.5273 10.4395C15.6152 10.6836 15.8252 10.9131 16.1572 11.1279L19.6729 13.5156C20.3174 13.9746 20.8398 14.4336 21.2402 14.8926C21.6406 15.3418 21.9531 15.791 22.1777 16.2402C22.4023 16.6895 22.5537 17.1338 22.6318 17.5732C22.7197 18.0029 22.7637 18.4277 22.7637 18.8477C22.7637 19.5312 22.6514 20.1758 22.4268 20.7812C22.2021 21.3867 21.8945 21.9482 21.5039 22.4658C21.1133 22.9736 20.6543 23.4326 20.127 23.8428C19.6094 24.2432 19.0527 24.5898 18.457 24.8828C17.8613 25.166 17.2412 25.3809 16.5967 25.5273C15.9619 25.6836 15.3369 25.7617 14.7217 25.7617C14.2432 25.7617 13.7695 25.752 13.3008 25.7324C12.8418 25.7227 12.3926 25.6836 11.9531 25.6152C11.5137 25.5566 11.0889 25.459 10.6787 25.3223C10.2686 25.1953 9.87793 25.0146 9.50684 24.7803L9.25781 19.5508Z" fill="url(#paint1_linear_5_13)"/>
<path d="M25.6934 9.78027C25.6836 10.6201 25.6006 11.3721 25.4443 12.0361C25.2979 12.7002 25.083 13.3008 24.7998 13.8379C24.5264 14.3652 24.1895 14.8438 23.7891 15.2734C23.3984 15.6934 22.9492 16.0889 22.4414 16.46C21.4648 17.1631 20.3955 17.6953 19.2334 18.0566C18.0713 18.4082 16.9043 18.584 15.7324 18.584C15.5371 18.584 15.3418 18.5791 15.1465 18.5693C14.9609 18.5596 14.7705 18.5449 14.5752 18.5254L14.0918 23.8721L13.8428 24.3262C13.8232 24.3652 13.6572 24.4434 13.3447 24.5605C13.0322 24.6777 12.6416 24.8145 12.1729 24.9707L11.25 25.2783C10.957 25.3857 10.6982 25.4834 10.4736 25.5713C10.249 25.6592 10.0391 25.7373 9.84375 25.8057C9.64844 25.874 9.45801 25.9229 9.27246 25.9521C9.08691 25.9912 8.8916 26.0107 8.68652 26.0107C8.5498 26.0107 8.44238 25.9766 8.36426 25.9082C8.28613 25.8398 8.24707 25.708 8.24707 25.5127L8.4082 23.0078C8.4375 22.5098 8.47168 22.0117 8.51074 21.5137C8.55957 21.0059 8.60352 20.4297 8.64258 19.7852L8.9209 16.2842C8.97949 15.5713 9.0332 14.8584 9.08203 14.1455C9.13086 13.4326 9.17969 12.7539 9.22852 12.1094C9.27734 11.4648 9.32129 10.8643 9.36035 10.3076C9.39941 9.74121 9.43359 9.24805 9.46289 8.82812C8.93555 8.94531 8.51074 9.0332 8.18848 9.0918C7.87598 9.14062 7.63672 9.16504 7.4707 9.16504C7.26562 9.16504 7.16309 9.07715 7.16309 8.90137C7.2998 8.42285 7.42676 7.9541 7.54395 7.49512C7.65137 7.10449 7.75879 6.7041 7.86621 6.29395C7.9834 5.87402 8.08105 5.52246 8.15918 5.23926C8.20801 5.06348 8.26172 4.93164 8.32031 4.84375C8.38867 4.74609 8.47168 4.67285 8.56934 4.62402C8.67676 4.56543 8.80859 4.5166 8.96484 4.47754C9.13086 4.42871 9.33105 4.36523 9.56543 4.28711C9.75098 4.22852 10.0098 4.16504 10.3418 4.09668C10.6836 4.01855 11.0693 3.94531 11.499 3.87695C11.9385 3.79883 12.4121 3.72559 12.9199 3.65723C13.4277 3.58887 13.9404 3.53027 14.458 3.48145C14.9854 3.42285 15.5029 3.37891 16.0107 3.34961C16.5186 3.31055 16.9971 3.29102 17.4463 3.29102C18.5596 3.29102 19.6143 3.39355 20.6104 3.59863C21.6064 3.80371 22.4805 4.15527 23.2324 4.65332C23.9844 5.1416 24.5801 5.80566 25.0195 6.64551C25.4688 7.47559 25.6934 8.52051 25.6934 9.78027ZM14.9854 14.1748C14.9854 14.2822 15.0049 14.3799 15.0439 14.4678C15.083 14.5459 15.1904 14.585 15.3662 14.585C15.6396 14.585 15.9619 14.5264 16.333 14.4092C16.7139 14.2822 17.0898 14.0967 17.4609 13.8525C17.8418 13.6084 18.1934 13.3057 18.5156 12.9443C18.8379 12.583 19.082 12.1582 19.248 11.6699C19.3164 11.4746 19.3701 11.2256 19.4092 10.9229C19.458 10.6201 19.4824 10.2637 19.4824 9.85352C19.4824 9.16992 19.2432 8.66699 18.7646 8.34473C18.2959 8.02246 17.6807 7.86133 16.9189 7.86133C16.792 7.86133 16.6455 7.87109 16.4795 7.89062C16.3232 7.90039 16.1719 7.9248 16.0254 7.96387C15.8887 8.00293 15.7715 8.05176 15.6738 8.11035C15.5762 8.15918 15.5225 8.22754 15.5127 8.31543L15.4834 8.6377C15.4736 8.76465 15.4541 8.97461 15.4248 9.26758C15.3955 9.55078 15.3613 9.87793 15.3223 10.249C15.293 10.6201 15.2588 11.0107 15.2197 11.4209C15.1904 11.8311 15.1562 12.2217 15.1172 12.5928C15.0879 12.9639 15.0586 13.291 15.0293 13.5742C15.0098 13.8574 14.9951 14.0576 14.9854 14.1748Z" fill="white"/>
<defs>
<linearGradient id="paint0_linear_5_13" x1="15" y1="0" x2="15" y2="30" gradientUnits="userSpaceOnUse">
<stop stop-color="#8FC3E9"/>
<stop offset="1" stop-color="#0094FF"/>
</linearGradient>
<linearGradient id="paint1_linear_5_13" x1="15" y1="0" x2="15" y2="30" gradientUnits="userSpaceOnUse">
<stop stop-color="#B1DEFF"/>
<stop offset="1" stop-color="#0094FF"/>
</linearGradient>
</defs>
</svg>
