<svg width="100" height="30" viewBox="0 0 100 30" fill="none" xmlns="http://www.w3.org/2000/svg">
<path d="M0 5C0 2.23858 2.23858 0 5 0H95C97.7614 0 100 2.23858 100 5V25C100 27.7614 97.7614 30 95 30H5C2.23858 30 0 27.7614 0 25V5Z" fill="url(#paint0_linear_5_13)"/>
<path d="M12.3901 12.4048C12.3859 12.7687 12.3499 13.0946 12.2822 13.3823C12.2188 13.6701 12.1257 13.9303 12.0029 14.1631C11.8844 14.3916 11.7384 14.599 11.5649 14.7852C11.3957 14.9671 11.201 15.1385 10.981 15.2993C10.5578 15.604 10.0944 15.8346 9.59082 15.9912C9.08724 16.1436 8.58154 16.2197 8.07373 16.2197C7.9891 16.2197 7.90446 16.2176 7.81982 16.2134C7.73942 16.2091 7.6569 16.2028 7.57227 16.1943L7.36279 18.5112L7.25488 18.708C7.24642 18.7249 7.17448 18.7588 7.03906 18.8096C6.90365 18.8604 6.73438 18.9196 6.53125 18.9873L6.13135 19.1206C6.00439 19.1672 5.89225 19.2095 5.79492 19.2476C5.69759 19.2856 5.60661 19.3195 5.52197 19.3491C5.43734 19.3787 5.35482 19.3999 5.27441 19.4126C5.19401 19.4295 5.10938 19.438 5.02051 19.438C4.96126 19.438 4.91471 19.4232 4.88086 19.3936C4.84701 19.3639 4.83008 19.3068 4.83008 19.2222L4.8999 18.1367C4.9126 17.9209 4.92741 17.7051 4.94434 17.4893C4.96549 17.2692 4.98454 17.0195 5.00146 16.7402L5.12207 15.2231C5.14746 14.9142 5.17074 14.6053 5.19189 14.2964C5.21305 13.9875 5.23421 13.6934 5.25537 13.4141C5.27653 13.1348 5.29557 12.8745 5.3125 12.6333C5.32943 12.3879 5.34424 12.1742 5.35693 11.9922C5.12842 12.043 4.94434 12.0811 4.80469 12.1064C4.66927 12.1276 4.56559 12.1382 4.49365 12.1382C4.40479 12.1382 4.36035 12.1001 4.36035 12.0239C4.4196 11.8166 4.47461 11.6134 4.52539 11.4146C4.57194 11.2453 4.61849 11.0718 4.66504 10.894C4.71582 10.7121 4.75814 10.5597 4.79199 10.437C4.81315 10.3608 4.83643 10.3037 4.86182 10.2656C4.89144 10.2233 4.92741 10.1916 4.96973 10.1704C5.01628 10.145 5.0734 10.1239 5.14111 10.1069C5.21305 10.0858 5.2998 10.0583 5.40137 10.0244C5.48177 9.99902 5.59391 9.97152 5.73779 9.94189C5.8859 9.90804 6.05306 9.8763 6.23926 9.84668C6.42969 9.81283 6.63493 9.78109 6.85498 9.75146C7.07503 9.72184 7.2972 9.69645 7.52148 9.67529C7.75 9.6499 7.97428 9.63086 8.19434 9.61816C8.41439 9.60124 8.62174 9.59277 8.81641 9.59277C9.29883 9.59277 9.75586 9.63721 10.1875 9.72607C10.6191 9.81494 10.9979 9.96729 11.3237 10.1831C11.6496 10.3947 11.9077 10.6825 12.0981 11.0464C12.2928 11.4061 12.3901 11.8589 12.3901 12.4048ZM7.75 14.3091C7.75 14.3556 7.75846 14.3979 7.77539 14.436C7.79232 14.4699 7.83887 14.4868 7.91504 14.4868C8.03353 14.4868 8.17318 14.4614 8.33398 14.4106C8.49902 14.3556 8.66195 14.2752 8.82275 14.1694C8.98779 14.0636 9.14014 13.9325 9.27979 13.7759C9.41943 13.6193 9.52523 13.4352 9.59717 13.2236C9.62679 13.139 9.65007 13.0311 9.66699 12.8999C9.68815 12.7687 9.69873 12.6143 9.69873 12.4365C9.69873 12.1403 9.59505 11.9224 9.3877 11.7827C9.18457 11.6431 8.91797 11.5732 8.58789 11.5732C8.53288 11.5732 8.4694 11.5775 8.39746 11.5859C8.32975 11.5902 8.26416 11.6007 8.20068 11.6177C8.14144 11.6346 8.09066 11.6558 8.04834 11.6812C8.00602 11.7023 7.98275 11.7319 7.97852 11.77L7.96582 11.9097C7.96159 11.9647 7.95312 12.0557 7.94043 12.1826C7.92773 12.3053 7.91292 12.4471 7.896 12.6079C7.8833 12.7687 7.86849 12.938 7.85156 13.1157C7.83887 13.2935 7.82406 13.4627 7.80713 13.6235C7.79443 13.7843 7.78174 13.9261 7.76904 14.0488C7.76058 14.1715 7.75423 14.2583 7.75 14.3091ZM19.1313 17.7241C19.1271 17.741 19.125 17.758 19.125 17.7749C19.125 17.7876 19.125 17.8003 19.125 17.813C19.125 17.9188 19.1419 18.0076 19.1758 18.0796C19.2096 18.1473 19.2456 18.2044 19.2837 18.251C19.326 18.2933 19.3641 18.3293 19.3979 18.3589C19.4318 18.3843 19.4487 18.4076 19.4487 18.4287C19.4487 18.488 19.3853 18.543 19.2583 18.5938L17.5508 19.3237C17.5465 19.328 17.5317 19.3301 17.5063 19.3301C17.4725 19.3301 17.4386 19.3005 17.4048 19.2412C17.3709 19.182 17.3371 19.1058 17.3032 19.0127C17.2736 18.9238 17.244 18.8286 17.2144 18.7271C17.189 18.6213 17.1657 18.5239 17.1445 18.4351C16.8779 18.744 16.5902 18.9704 16.2812 19.1143C15.9723 19.2581 15.6655 19.3301 15.3608 19.3301C15.0054 19.3301 14.6584 19.2518 14.3198 19.0952C13.9813 18.9386 13.6808 18.7165 13.4185 18.4287C13.1561 18.1367 12.9445 17.7855 12.7837 17.375C12.6271 16.9645 12.5488 16.5033 12.5488 15.9912C12.5488 15.3861 12.6356 14.8338 12.8091 14.3345C12.9868 13.8351 13.2259 13.4056 13.5264 13.0459C13.8268 12.6862 14.1759 12.409 14.5737 12.2144C14.9757 12.0155 15.401 11.916 15.8496 11.916C16.167 11.916 16.4674 11.9816 16.751 12.1128C17.0345 12.2397 17.3032 12.4048 17.5571 12.6079C17.5825 12.481 17.5973 12.3794 17.6016 12.3032C17.6058 12.2271 17.6143 12.1678 17.627 12.1255C17.6439 12.0832 17.6735 12.0557 17.7158 12.043C17.7581 12.026 17.828 12.0133 17.9253 12.0049C18.23 11.9626 18.5326 11.9245 18.833 11.8906C19.1377 11.8525 19.4551 11.825 19.7852 11.8081L19.1313 17.7241ZM17.2334 15.3311C17.2757 15.0898 17.3032 14.8634 17.3159 14.6519C17.3328 14.436 17.3455 14.2393 17.354 14.0615C17.2863 14.0107 17.2122 13.9578 17.1318 13.9028C17.0557 13.8478 16.971 13.797 16.8779 13.7505C16.7891 13.6997 16.6938 13.6595 16.5923 13.6299C16.495 13.6003 16.3913 13.5854 16.2812 13.5854C16.0527 13.5854 15.8602 13.6595 15.7036 13.8076C15.5513 13.9557 15.4264 14.1377 15.3291 14.3535C15.236 14.5693 15.1683 14.7979 15.126 15.0391C15.0879 15.2803 15.0688 15.494 15.0688 15.6802C15.0688 16.3488 15.1556 16.8397 15.3291 17.1528C15.5068 17.4618 15.7523 17.6162 16.0654 17.6162C16.1924 17.6162 16.3341 17.5802 16.4907 17.5083C16.6473 17.4364 16.806 17.3369 16.9668 17.21L17.2334 15.3311ZM25.7646 13.833C25.6758 13.8245 25.5763 13.8161 25.4663 13.8076C25.3563 13.7949 25.2399 13.7886 25.1172 13.7886C24.931 13.7886 24.7406 13.8055 24.5459 13.8394C24.3555 13.869 24.1777 13.9303 24.0127 14.0234C23.8477 14.1165 23.7059 14.2456 23.5874 14.4106C23.4689 14.5715 23.3927 14.7809 23.3589 15.0391C23.3293 15.3522 23.3039 15.6104 23.2827 15.8135C23.2658 16.0124 23.2531 16.1774 23.2446 16.3086C23.2362 16.4355 23.2277 16.5392 23.2192 16.6196C23.215 16.6958 23.2108 16.7677 23.2065 16.8354C23.2065 16.8524 23.2023 16.8989 23.1938 16.9751C23.1896 17.0513 23.1812 17.1401 23.1685 17.2417C23.1558 17.3433 23.1431 17.4533 23.1304 17.5718C23.1219 17.6903 23.1113 17.8003 23.0986 17.9019C23.0859 18.0034 23.0754 18.0923 23.0669 18.1685C23.0627 18.2446 23.0605 18.2912 23.0605 18.3081C23.0605 18.342 23.0605 18.3716 23.0605 18.397C23.0648 18.4181 23.0669 18.4393 23.0669 18.4604C23.0669 18.4943 23.05 18.5239 23.0161 18.5493C22.9865 18.5705 22.9167 18.5959 22.8066 18.6255L21.1245 19.2285C21.078 19.2454 21.0166 19.2666 20.9404 19.292C20.8643 19.3174 20.7902 19.3301 20.7183 19.3301C20.659 19.3301 20.6061 19.3153 20.5596 19.2856C20.5173 19.256 20.4961 19.2052 20.4961 19.1333L21.042 12.8428C21.0547 12.7031 21.0695 12.6079 21.0864 12.5571C21.1076 12.5021 21.1562 12.4661 21.2324 12.4492C21.6175 12.373 22.0153 12.2969 22.4258 12.2207C22.8363 12.1403 23.234 12.0387 23.6191 11.916C23.653 11.916 23.672 11.9224 23.6763 11.9351C23.6847 11.9435 23.689 11.9583 23.689 11.9795C23.689 11.988 23.6868 12.0007 23.6826 12.0176C23.6826 12.0345 23.6763 12.0726 23.6636 12.1318C23.6551 12.1911 23.6403 12.2821 23.6191 12.4048C23.6022 12.5233 23.5768 12.6904 23.543 12.9062C23.7376 12.7539 23.9513 12.6143 24.1841 12.4873C24.4211 12.3604 24.658 12.2524 24.895 12.1636C25.132 12.0705 25.3605 11.9985 25.5806 11.9478C25.8006 11.8927 25.9932 11.8652 26.1582 11.8652L25.7646 13.833ZM29.7319 14.106C29.6727 14.5503 29.6156 14.9946 29.5605 15.439C29.5098 15.8791 29.478 16.2917 29.4653 16.6768C29.4653 16.8418 29.478 16.9793 29.5034 17.0894C29.5288 17.1994 29.5648 17.2861 29.6113 17.3496C29.6621 17.4131 29.7214 17.4596 29.7891 17.4893C29.8568 17.5146 29.9329 17.5273 30.0176 17.5273C30.153 17.5273 30.3011 17.5083 30.4619 17.4702C30.6227 17.4279 30.7835 17.375 30.9443 17.3115C30.9951 17.2904 31.0374 17.2756 31.0713 17.2671C31.1094 17.2544 31.1411 17.248 31.1665 17.248C31.2088 17.248 31.2363 17.2671 31.249 17.3052C31.266 17.3433 31.2808 17.411 31.2935 17.5083C31.3104 17.6014 31.3337 17.7284 31.3633 17.8892C31.3929 18.05 31.4416 18.2531 31.5093 18.4985C31.5135 18.5197 31.5156 18.5387 31.5156 18.5557C31.5199 18.5684 31.522 18.5811 31.522 18.5938C31.522 18.653 31.4987 18.6953 31.4521 18.7207C31.4098 18.7461 31.3379 18.7757 31.2363 18.8096C31.0628 18.8688 30.8787 18.9302 30.6841 18.9937C30.4937 19.0529 30.3032 19.1079 30.1128 19.1587C29.9266 19.2095 29.7467 19.2497 29.5732 19.2793C29.3997 19.3132 29.2474 19.3301 29.1162 19.3301C28.4095 19.3301 27.8932 19.1545 27.5674 18.8032C27.2458 18.452 27.085 17.9167 27.085 17.1973C27.085 17.0745 27.0892 16.9497 27.0977 16.8228C27.1061 16.6916 27.1167 16.5562 27.1294 16.4165C27.1717 15.9933 27.2077 15.5934 27.2373 15.2168C27.2712 14.8359 27.305 14.472 27.3389 14.125H26.6724C26.4438 14.125 26.2788 14.1165 26.1772 14.0996C26.0757 14.0785 26.0249 14.0382 26.0249 13.979C26.0249 13.9621 26.0461 13.9176 26.0884 13.8457C26.1307 13.7695 26.1836 13.6807 26.2471 13.5791C26.3148 13.4733 26.3867 13.3612 26.4629 13.2427C26.5391 13.1242 26.611 13.0142 26.6787 12.9126C26.7507 12.8068 26.812 12.7158 26.8628 12.6396C26.9136 12.5635 26.9453 12.5169 26.958 12.5H27.4087C27.4468 12.1784 27.4764 11.9097 27.4976 11.6938C27.5229 11.4738 27.542 11.2918 27.5547 11.1479C27.5716 11.0041 27.5864 10.894 27.5991 10.8179C27.6118 10.7375 27.6245 10.6782 27.6372 10.6401C27.6541 10.6021 27.6732 10.5788 27.6943 10.5703C27.7197 10.5576 27.7515 10.547 27.7896 10.5386C27.98 10.5005 28.1641 10.4666 28.3418 10.437C28.5195 10.4032 28.6973 10.3693 28.875 10.3354C29.0527 10.3016 29.2326 10.2635 29.4146 10.2212C29.6007 10.1746 29.7933 10.1217 29.9922 10.0625C30.0049 10.0625 30.0133 10.0625 30.0176 10.0625C30.0218 10.0583 30.0303 10.0562 30.043 10.0562C30.0938 10.0562 30.1191 10.0731 30.1191 10.1069V10.1196C30.098 10.3524 30.0641 10.6761 30.0176 11.0908C29.9753 11.5055 29.9266 11.9753 29.8716 12.5H31.5728C31.6066 12.5 31.6383 12.5127 31.668 12.5381C31.7018 12.5592 31.7188 12.5973 31.7188 12.6523C31.7188 12.6735 31.6934 12.7497 31.6426 12.8809C31.5918 13.012 31.5199 13.1834 31.4268 13.395L31.1982 13.9092C31.1686 13.9727 31.1369 14.0192 31.103 14.0488C31.0734 14.0785 31.0099 14.0975 30.9126 14.106H29.7319ZM33.001 19.2031C33.0221 18.8942 33.0433 18.5959 33.0645 18.3081C33.0856 18.0203 33.1047 17.741 33.1216 17.4702L33.3501 14.4741C33.3755 14.2456 33.3966 14.0382 33.4136 13.8521C33.4305 13.6616 33.4432 13.4775 33.4517 13.2998C33.4644 13.1178 33.4749 12.9359 33.4834 12.7539C33.4961 12.5677 33.5088 12.3625 33.5215 12.1382C33.3818 12.134 33.2337 12.1318 33.0771 12.1318C32.9248 12.1318 32.764 12.1318 32.5947 12.1318H31.3696C31.3231 12.1318 31.2935 12.1149 31.2808 12.0811C31.2723 12.043 31.2681 12.0091 31.2681 11.9795V11.9351L31.9663 10.1006L31.96 10.0752C31.96 10.054 31.9727 10.0371 31.998 10.0244C32.0277 10.0075 32.0911 9.99479 32.1885 9.98633C32.7725 9.95247 33.3374 9.92074 33.8833 9.89111C34.4334 9.85726 34.9751 9.82764 35.5083 9.80225C36.0457 9.77686 36.5811 9.75146 37.1143 9.72607C37.6517 9.70068 38.2039 9.67741 38.771 9.65625C38.8218 9.65625 38.8747 9.6626 38.9297 9.67529C38.9889 9.68799 39.0186 9.73454 39.0186 9.81494C39.0186 9.8234 39.0164 9.83187 39.0122 9.84033C39.008 9.8488 39.0059 9.85726 39.0059 9.86572C38.9382 10.0392 38.8747 10.2043 38.8154 10.3608C38.7604 10.5174 38.7054 10.6719 38.6504 10.8242C38.5954 10.9766 38.5382 11.131 38.479 11.2876C38.424 11.4442 38.3626 11.6092 38.2949 11.7827C38.2907 11.7869 38.2822 11.8081 38.2695 11.8462C38.2568 11.88 38.2378 11.9202 38.2124 11.9668C38.187 12.0091 38.1532 12.0493 38.1108 12.0874C38.0685 12.1255 38.0156 12.1466 37.9521 12.1509C37.931 12.1466 37.9098 12.1445 37.8887 12.1445C37.8675 12.1445 37.8442 12.1445 37.8188 12.1445H36.124C36.1029 12.3604 36.0817 12.5889 36.0605 12.8301C36.0436 13.0713 36.0225 13.3062 35.9971 13.5347L35.5337 18.4922C35.5295 18.5303 35.521 18.5684 35.5083 18.6064C35.4998 18.6445 35.4723 18.672 35.4258 18.689L33.6294 19.3364C33.5828 19.3534 33.5215 19.3745 33.4453 19.3999C33.3691 19.4253 33.2951 19.438 33.2231 19.438C33.1639 19.438 33.111 19.4232 33.0645 19.3936C33.0221 19.3639 33.001 19.3089 33.001 19.2285V19.2031ZM39.5771 9.77051C39.5771 9.74512 39.575 9.72184 39.5708 9.70068C39.5708 9.67952 39.5708 9.65837 39.5708 9.63721C39.5708 9.59912 39.5856 9.56738 39.6152 9.54199C39.6449 9.51237 39.7168 9.48275 39.8311 9.45312L41.6147 9.02783C41.6613 9.01937 41.7227 9.00033 41.7988 8.9707C41.875 8.94108 41.9491 8.92627 42.021 8.92627C42.1691 8.92627 42.2432 8.99398 42.2432 9.12939C42.2432 9.13786 42.2368 9.22461 42.2241 9.38965C42.2114 9.55469 42.1945 9.75993 42.1733 10.0054C42.1522 10.2508 42.1289 10.5195 42.1035 10.8115C42.0781 11.0993 42.0527 11.3743 42.0273 11.6367C42.002 11.8991 41.9787 12.1297 41.9575 12.3286C41.9364 12.5233 41.9194 12.6502 41.9067 12.7095C42.1056 12.5994 42.313 12.4958 42.5288 12.3984C42.7446 12.3011 42.9604 12.2165 43.1763 12.1445C43.3963 12.0726 43.6143 12.0176 43.8301 11.9795C44.0501 11.9372 44.2617 11.916 44.4648 11.916C44.723 11.916 44.9642 11.9541 45.1885 12.0303C45.4128 12.1022 45.6074 12.2249 45.7725 12.3984C45.9417 12.5677 46.0729 12.792 46.166 13.0713C46.2633 13.3464 46.312 13.6849 46.312 14.0869C46.312 14.1885 46.3099 14.2943 46.3057 14.4043C46.3014 14.5101 46.293 14.6201 46.2803 14.7344L46.0073 17.3306C45.9862 17.5083 45.9735 17.6945 45.9692 17.8892C45.965 18.0796 45.9629 18.2764 45.9629 18.4795C45.9629 18.5133 45.9629 18.543 45.9629 18.5684C45.9671 18.5895 45.9692 18.6086 45.9692 18.6255C45.9692 18.6636 45.9523 18.6932 45.9185 18.7144C45.8888 18.7355 45.819 18.763 45.709 18.7969L44.1538 19.2285C44.1073 19.2412 44.0459 19.2603 43.9697 19.2856C43.8936 19.3153 43.8195 19.3301 43.7476 19.3301C43.6756 19.3301 43.6206 19.3132 43.5825 19.2793C43.5444 19.2497 43.5254 19.1883 43.5254 19.0952C43.555 18.7778 43.5783 18.5218 43.5952 18.3271C43.6164 18.1325 43.6312 17.978 43.6396 17.8638C43.6523 17.7453 43.6629 17.6564 43.6714 17.5972C43.6799 17.5337 43.6862 17.4787 43.6904 17.4321C43.6947 17.3813 43.701 17.3263 43.7095 17.2671C43.7179 17.2036 43.7264 17.1126 43.7349 16.9941C43.7476 16.8757 43.7624 16.7191 43.7793 16.5244C43.8005 16.3298 43.8258 16.0737 43.8555 15.7563C43.8724 15.5871 43.8893 15.4199 43.9062 15.2549C43.9274 15.0856 43.938 14.9312 43.938 14.7915C43.938 14.6138 43.9274 14.453 43.9062 14.3091C43.8893 14.161 43.8555 14.0361 43.8047 13.9346C43.7581 13.8288 43.6925 13.7463 43.6079 13.687C43.5233 13.6278 43.4154 13.5981 43.2842 13.5981C43.1868 13.5981 43.0535 13.6193 42.8843 13.6616C42.7192 13.7039 42.5521 13.7738 42.3828 13.8711C42.2178 13.9684 42.0697 14.0975 41.9385 14.2583C41.8115 14.4149 41.7396 14.6095 41.7227 14.8423C41.6888 15.1681 41.6613 15.4347 41.6401 15.6421C41.6232 15.8494 41.6084 16.0208 41.5957 16.1562C41.583 16.2917 41.5724 16.3996 41.564 16.48C41.5597 16.5604 41.5555 16.6344 41.5513 16.7021C41.547 16.7233 41.5407 16.7762 41.5322 16.8608C41.5238 16.9412 41.5132 17.0386 41.5005 17.1528C41.4878 17.2671 41.4751 17.3898 41.4624 17.521C41.4497 17.6479 41.437 17.7686 41.4243 17.8828C41.4159 17.9971 41.4074 18.0965 41.3989 18.1812C41.3947 18.2616 41.3926 18.3123 41.3926 18.3335C41.3926 18.3674 41.3926 18.397 41.3926 18.4224C41.3968 18.4435 41.3989 18.4647 41.3989 18.4858C41.3989 18.5197 41.382 18.5493 41.3481 18.5747C41.3185 18.5959 41.2487 18.6213 41.1387 18.6509L39.4819 19.2285C39.4354 19.2454 39.374 19.2666 39.2979 19.292C39.2217 19.3174 39.1476 19.3301 39.0757 19.3301C39.0122 19.3301 38.9593 19.311 38.917 19.2729C38.8747 19.2391 38.8535 19.1799 38.8535 19.0952L39.5771 9.77051ZM47.4482 16.3086C47.5033 15.7288 47.5583 15.1554 47.6133 14.5884C47.6683 14.0213 47.717 13.4395 47.7593 12.8428C47.7677 12.7031 47.7804 12.6079 47.7974 12.5571C47.8185 12.5021 47.8672 12.4661 47.9434 12.4492C48.3031 12.3773 48.6797 12.3032 49.0732 12.2271C49.4668 12.1466 49.8477 12.0451 50.2158 11.9224C50.2285 11.9181 50.2476 11.916 50.2729 11.916C50.3195 11.916 50.3428 11.9329 50.3428 11.9668L49.7715 18.1494C49.7588 18.2891 49.744 18.3864 49.7271 18.4414C49.7101 18.4922 49.6636 18.526 49.5874 18.543C49.2277 18.653 48.8638 18.7757 48.4956 18.9111C48.1274 19.0465 47.7381 19.1841 47.3276 19.3237C47.3149 19.328 47.2959 19.3301 47.2705 19.3301C47.224 19.3301 47.2007 19.3089 47.2007 19.2666C47.2007 19.2624 47.2049 19.2052 47.2134 19.0952C47.2218 18.9852 47.2324 18.8434 47.2451 18.6699C47.262 18.4964 47.279 18.3018 47.2959 18.0859C47.3128 17.8701 47.3298 17.6543 47.3467 17.4385C47.3678 17.2227 47.3869 17.0153 47.4038 16.8164C47.4207 16.6175 47.4355 16.4482 47.4482 16.3086ZM47.9243 11.2432C47.937 11.0612 47.9455 10.9215 47.9497 10.8242C47.9582 10.7269 47.9645 10.6549 47.9688 10.6084C47.973 10.5576 47.9751 10.5259 47.9751 10.5132C47.9751 10.5005 47.9751 10.492 47.9751 10.4878C47.9793 10.4793 47.9814 10.4666 47.9814 10.4497C47.9857 10.4285 47.9899 10.3883 47.9941 10.3291C47.9984 10.2656 48.0047 10.1746 48.0132 10.0562C48.0216 9.93766 48.0343 9.77474 48.0513 9.56738C48.0597 9.42773 48.0724 9.33252 48.0894 9.28174C48.1105 9.22673 48.1592 9.19076 48.2354 9.17383C48.5951 9.10189 48.9717 9.02783 49.3652 8.95166C49.7588 8.87126 50.1396 8.76969 50.5078 8.64697C50.5205 8.64274 50.5396 8.64062 50.5649 8.64062C50.5776 8.66602 50.5946 8.68294 50.6157 8.69141L50.6348 8.7041L50.4951 10.4434C50.4824 10.583 50.4655 10.6803 50.4443 10.7354C50.4274 10.7904 50.383 10.8242 50.311 10.8369C49.9513 10.9046 49.5874 10.9787 49.2192 11.0591C48.8511 11.1395 48.4618 11.2199 48.0513 11.3003C48.0386 11.3045 48.0195 11.3066 47.9941 11.3066C47.9476 11.3066 47.9243 11.2855 47.9243 11.2432ZM51.1997 17.248C51.1997 17.2438 51.1976 17.2417 51.1934 17.2417C51.1934 17.2375 51.1934 17.2332 51.1934 17.229C51.1934 17.174 51.223 17.1465 51.2822 17.1465C51.3203 17.1465 51.3542 17.1613 51.3838 17.1909C51.5531 17.3517 51.7456 17.4829 51.9614 17.5845C52.1815 17.686 52.4185 17.7368 52.6724 17.7368C52.7401 17.7368 52.8184 17.7305 52.9072 17.7178C52.9961 17.7008 53.0807 17.6755 53.1611 17.6416C53.2415 17.6077 53.3071 17.5633 53.3579 17.5083C53.4129 17.4491 53.4404 17.3771 53.4404 17.2925C53.4404 17.1994 53.4172 17.1147 53.3706 17.0386C53.3241 16.9582 53.2627 16.8926 53.1865 16.8418C53.1442 16.8122 53.0701 16.7614 52.9644 16.6895C52.8586 16.6133 52.7443 16.5329 52.6216 16.4482C52.5031 16.3636 52.3888 16.2832 52.2788 16.207C52.173 16.1309 52.099 16.0758 52.0566 16.042C51.8662 15.8981 51.7139 15.7521 51.5996 15.604C51.4896 15.4559 51.4049 15.3035 51.3457 15.147C51.2865 14.9862 51.2484 14.819 51.2314 14.6455C51.2145 14.472 51.2061 14.2879 51.2061 14.0933C51.2061 13.797 51.2843 13.5177 51.4409 13.2554C51.5975 12.993 51.8027 12.7624 52.0566 12.5635C52.3148 12.3646 52.6068 12.208 52.9326 12.0938C53.2585 11.9753 53.5907 11.916 53.9292 11.916C54.2085 11.916 54.4836 11.9583 54.7544 12.043C55.0252 12.1276 55.277 12.2715 55.5098 12.4746C55.5309 12.7412 55.5457 13.0036 55.5542 13.2617C55.5627 13.5199 55.5754 13.7907 55.5923 14.0742C55.5923 14.1292 55.5796 14.1673 55.5542 14.1885C55.5288 14.2054 55.4992 14.2139 55.4653 14.2139C55.4357 14.2139 55.4103 14.2033 55.3892 14.1821C55.2918 14.089 55.1924 13.998 55.0908 13.9092C54.9893 13.8161 54.8813 13.7357 54.7671 13.668C54.6571 13.596 54.5386 13.5389 54.4116 13.4966C54.2847 13.45 54.1493 13.4268 54.0054 13.4268C53.9165 13.4268 53.8276 13.4352 53.7388 13.4521C53.6499 13.4648 53.5695 13.4924 53.4976 13.5347C53.4256 13.5728 53.3664 13.6257 53.3198 13.6934C53.2775 13.7611 53.2563 13.8478 53.2563 13.9536C53.2563 14.0763 53.2712 14.1821 53.3008 14.271C53.3304 14.3599 53.4002 14.4466 53.5103 14.5312L54.6909 15.3311C54.9067 15.4792 55.0802 15.6252 55.2114 15.769C55.3468 15.9087 55.4526 16.0483 55.5288 16.188C55.605 16.3276 55.6558 16.4673 55.6812 16.6069C55.7108 16.7424 55.7256 16.8778 55.7256 17.0132C55.7256 17.394 55.6367 17.7305 55.459 18.0225C55.2855 18.3102 55.0591 18.5514 54.7798 18.7461C54.5005 18.9365 54.1831 19.0804 53.8276 19.1777C53.4764 19.2793 53.123 19.3301 52.7676 19.3301C52.4967 19.3301 52.2344 19.3005 51.9805 19.2412C51.7308 19.1862 51.498 19.0994 51.2822 18.981L51.1997 17.248ZM56.4492 19.2412C56.4577 19.0423 56.464 18.8857 56.4683 18.7715C56.4725 18.653 56.4746 18.562 56.4746 18.4985C56.4788 18.4351 56.481 18.3906 56.481 18.3652C56.481 18.3398 56.481 18.3166 56.481 18.2954C56.481 18.27 56.481 18.2404 56.481 18.2065C56.4852 18.1727 56.4894 18.1177 56.4937 18.0415C56.4979 17.9611 56.5042 17.8532 56.5127 17.7178C56.5212 17.5781 56.5317 17.394 56.5444 17.1655C56.5529 17.0259 56.5656 16.9307 56.5825 16.8799C56.6037 16.8249 56.6523 16.791 56.7285 16.7783C57.1009 16.7783 57.4902 16.7783 57.8965 16.7783C58.3027 16.7741 58.6857 16.7699 59.0454 16.7656C59.0835 16.7656 59.1152 16.7762 59.1406 16.7974C59.166 16.8185 59.1787 16.8587 59.1787 16.918L59.001 18.9111C58.984 19.0508 58.9671 19.146 58.9502 19.1968C58.9375 19.2518 58.891 19.2835 58.8105 19.292C58.4508 19.2962 58.0806 19.3005 57.6997 19.3047C57.3231 19.3089 56.9295 19.311 56.519 19.311C56.4937 19.311 56.4746 19.3089 56.4619 19.3047C56.4535 19.3005 56.4492 19.2878 56.4492 19.2666V19.2412ZM60.4229 16.6387C60.4229 16.6344 60.4207 16.6302 60.4165 16.626C60.4165 16.6217 60.4165 16.6175 60.4165 16.6133C60.4165 16.5413 60.4546 16.5054 60.5308 16.5054C60.5688 16.5054 60.6112 16.5244 60.6577 16.5625C60.8862 16.7783 61.1401 16.9497 61.4194 17.0767C61.6987 17.2036 62.0034 17.2671 62.3335 17.2671C62.4224 17.2671 62.5239 17.2586 62.6382 17.2417C62.7524 17.2205 62.8604 17.1888 62.9619 17.1465C63.0635 17.0999 63.1481 17.0407 63.2158 16.9688C63.2878 16.8968 63.3237 16.8058 63.3237 16.6958C63.3237 16.5731 63.2941 16.4631 63.2349 16.3657C63.1756 16.2684 63.0973 16.1859 63 16.1182C62.9619 16.0928 62.9048 16.0505 62.8286 15.9912C62.7524 15.932 62.6657 15.8643 62.5684 15.7881C62.471 15.7119 62.3695 15.6315 62.2637 15.5469C62.1579 15.458 62.0563 15.3755 61.959 15.2993C61.8659 15.2189 61.7812 15.147 61.7051 15.0835C61.6289 15.02 61.5718 14.9714 61.5337 14.9375C61.284 14.7513 61.0851 14.563 60.937 14.3726C60.7931 14.1821 60.6831 13.9832 60.6069 13.7759C60.5308 13.5685 60.4821 13.3548 60.4609 13.1348C60.4398 12.9105 60.4292 12.6735 60.4292 12.4238C60.4292 12.0514 60.5181 11.6981 60.6958 11.3638C60.8735 11.0295 61.1232 10.7396 61.4448 10.4941C61.7707 10.2445 62.16 10.0477 62.6128 9.90381C63.0656 9.7557 63.5692 9.68164 64.1235 9.68164C64.1912 9.68164 64.2928 9.6901 64.4282 9.70703C64.5636 9.71973 64.7118 9.743 64.8726 9.77686C65.0376 9.81071 65.2048 9.85726 65.374 9.9165C65.5433 9.97575 65.6978 10.0519 65.8374 10.145C65.884 10.1789 65.9199 10.2127 65.9453 10.2466C65.9749 10.2804 65.994 10.3333 66.0024 10.4053C66.0236 10.748 66.0405 11.0866 66.0532 11.4209C66.0659 11.751 66.0828 12.1022 66.104 12.4746C66.104 12.5465 66.0892 12.5952 66.0596 12.6206C66.0299 12.6418 65.9919 12.6523 65.9453 12.6523C65.8988 12.6523 65.8628 12.6396 65.8374 12.6143C65.7147 12.4915 65.5877 12.3709 65.4565 12.2524C65.3254 12.134 65.1878 12.0303 65.0439 11.9414C64.9001 11.8483 64.7456 11.7743 64.5806 11.7192C64.4198 11.6642 64.2441 11.6367 64.0537 11.6367C63.9395 11.6367 63.8252 11.6473 63.7109 11.6685C63.5967 11.6854 63.493 11.7192 63.3999 11.77C63.3068 11.8208 63.2306 11.8906 63.1714 11.9795C63.1164 12.0684 63.0889 12.1805 63.0889 12.3159C63.0889 12.4598 63.1058 12.5846 63.1396 12.6904C63.1777 12.7962 63.2687 12.8957 63.4126 12.9888L64.936 14.0234C65.2153 14.2223 65.4417 14.4212 65.6152 14.6201C65.7887 14.8148 65.9242 15.0094 66.0215 15.2041C66.1188 15.3988 66.1844 15.5913 66.2183 15.7817C66.2563 15.9679 66.2754 16.152 66.2754 16.334C66.2754 16.6302 66.2267 16.9095 66.1294 17.1719C66.0321 17.4342 65.8988 17.6776 65.7295 17.9019C65.5602 18.1219 65.3613 18.3208 65.1328 18.4985C64.9085 18.672 64.6673 18.8223 64.4092 18.9492C64.151 19.0719 63.8823 19.165 63.603 19.2285C63.328 19.2962 63.0571 19.3301 62.7905 19.3301C62.5832 19.3301 62.3779 19.3258 62.1748 19.3174C61.9759 19.3132 61.7812 19.2962 61.5908 19.2666C61.4004 19.2412 61.2163 19.1989 61.0386 19.1396C60.8608 19.0846 60.6916 19.0063 60.5308 18.9048L60.4229 16.6387ZM69.9126 14.5693C69.8872 14.9756 69.8639 15.3057 69.8428 15.5596C69.8258 15.8135 69.811 16.0208 69.7983 16.1816C69.7856 16.3382 69.7751 16.4631 69.7666 16.5562C69.7581 16.645 69.7518 16.7297 69.7476 16.8101C69.8449 17.064 69.9888 17.2713 70.1792 17.4321C70.3696 17.5887 70.5981 17.667 70.8647 17.667C71.0975 17.667 71.3006 17.5951 71.4741 17.4512C71.6519 17.3031 71.7979 17.1126 71.9121 16.8799C72.0306 16.6471 72.1195 16.3869 72.1787 16.0991C72.238 15.8114 72.2676 15.5257 72.2676 15.2422C72.2676 15.0094 72.2464 14.7936 72.2041 14.5947C72.166 14.3958 72.1068 14.2244 72.0264 14.0806C71.946 13.9325 71.8444 13.8182 71.7217 13.7378C71.6032 13.6532 71.4614 13.6108 71.2964 13.6108C71.161 13.6108 71.0256 13.6383 70.8901 13.6934C70.759 13.7441 70.632 13.8118 70.5093 13.8965C70.3866 13.9769 70.2744 14.07 70.1729 14.1758C70.0755 14.2773 69.9951 14.3768 69.9316 14.4741L69.9126 14.5693ZM70.0396 12.7095C70.395 12.4683 70.7674 12.2757 71.1567 12.1318C71.5461 11.988 71.9523 11.916 72.3755 11.916C72.7733 11.916 73.116 11.9985 73.4038 12.1636C73.6958 12.3244 73.937 12.5444 74.1274 12.8237C74.3179 13.0988 74.4575 13.4162 74.5464 13.7759C74.6395 14.1356 74.686 14.5122 74.686 14.9058C74.686 15.2485 74.6522 15.5955 74.5845 15.9468C74.5168 16.298 74.4173 16.6387 74.2861 16.9688C74.1549 17.2946 73.992 17.6014 73.7974 17.8892C73.6027 18.1769 73.3784 18.4287 73.1245 18.6445C72.8748 18.8561 72.5955 19.0233 72.2866 19.146C71.9777 19.2687 71.6434 19.3301 71.2837 19.3301C70.9663 19.3301 70.6616 19.2666 70.3696 19.1396C70.0819 19.0127 69.811 18.8477 69.5571 18.6445C69.5571 18.6657 69.5508 18.744 69.5381 18.8794C69.5296 19.0106 69.5169 19.1714 69.5 19.3618C69.4831 19.5522 69.464 19.7554 69.4429 19.9712C69.4217 20.1912 69.4027 20.3965 69.3857 20.5869C69.3688 20.7773 69.354 20.9382 69.3413 21.0693C69.3328 21.2048 69.3286 21.283 69.3286 21.3042C69.3286 21.3381 69.3286 21.3656 69.3286 21.3867C69.3328 21.4121 69.335 21.4354 69.335 21.4565C69.335 21.4904 69.318 21.5179 69.2842 21.5391C69.2546 21.5645 69.1847 21.592 69.0747 21.6216L67.4053 22.0469C67.3587 22.0596 67.2974 22.0786 67.2212 22.104C67.145 22.1336 67.071 22.1484 66.999 22.1484C66.9398 22.1484 66.8869 22.1336 66.8403 22.104C66.798 22.0744 66.7769 22.0194 66.7769 21.939L67.5513 12.646C67.564 12.5063 67.5788 12.4111 67.5957 12.3604C67.6169 12.3053 67.6655 12.2694 67.7417 12.2524C68.1268 12.1763 68.5225 12.1001 68.9287 12.0239C69.335 11.9435 69.7306 11.842 70.1157 11.7192C70.1496 11.7192 70.1686 11.7256 70.1729 11.7383C70.1813 11.7467 70.1855 11.7616 70.1855 11.7827C70.1855 11.7912 70.1834 11.8039 70.1792 11.8208C70.1792 11.8377 70.1729 11.8758 70.1602 11.9351C70.1517 11.9943 70.1369 12.0853 70.1157 12.208C70.0988 12.3265 70.0734 12.4937 70.0396 12.7095ZM81.9731 17.7241C81.9689 17.741 81.9668 17.758 81.9668 17.7749C81.9668 17.7876 81.9668 17.8003 81.9668 17.813C81.9668 17.9188 81.9837 18.0076 82.0176 18.0796C82.0514 18.1473 82.0874 18.2044 82.1255 18.251C82.1678 18.2933 82.2059 18.3293 82.2397 18.3589C82.2736 18.3843 82.2905 18.4076 82.2905 18.4287C82.2905 18.488 82.2271 18.543 82.1001 18.5938L80.3926 19.3237C80.3883 19.328 80.3735 19.3301 80.3481 19.3301C80.3143 19.3301 80.2804 19.3005 80.2466 19.2412C80.2127 19.182 80.1789 19.1058 80.145 19.0127C80.1154 18.9238 80.0858 18.8286 80.0562 18.7271C80.0308 18.6213 80.0075 18.5239 79.9863 18.4351C79.7197 18.744 79.432 18.9704 79.123 19.1143C78.8141 19.2581 78.5073 19.3301 78.2026 19.3301C77.8472 19.3301 77.5002 19.2518 77.1616 19.0952C76.8231 18.9386 76.5226 18.7165 76.2603 18.4287C75.9979 18.1367 75.7863 17.7855 75.6255 17.375C75.4689 16.9645 75.3906 16.5033 75.3906 15.9912C75.3906 15.3861 75.4774 14.8338 75.6509 14.3345C75.8286 13.8351 76.0677 13.4056 76.3682 13.0459C76.6686 12.6862 77.0177 12.409 77.4155 12.2144C77.8175 12.0155 78.2428 11.916 78.6914 11.916C79.0088 11.916 79.3092 11.9816 79.5928 12.1128C79.8763 12.2397 80.145 12.4048 80.3989 12.6079C80.4243 12.481 80.4391 12.3794 80.4434 12.3032C80.4476 12.2271 80.4561 12.1678 80.4688 12.1255C80.4857 12.0832 80.5153 12.0557 80.5576 12.043C80.5999 12.026 80.6698 12.0133 80.7671 12.0049C81.0718 11.9626 81.3743 11.9245 81.6748 11.8906C81.9795 11.8525 82.2969 11.825 82.627 11.8081L81.9731 17.7241ZM80.0752 15.3311C80.1175 15.0898 80.145 14.8634 80.1577 14.6519C80.1746 14.436 80.1873 14.2393 80.1958 14.0615C80.1281 14.0107 80.054 13.9578 79.9736 13.9028C79.8975 13.8478 79.8128 13.797 79.7197 13.7505C79.6309 13.6997 79.5356 13.6595 79.4341 13.6299C79.3368 13.6003 79.2331 13.5854 79.123 13.5854C78.8945 13.5854 78.702 13.6595 78.5454 13.8076C78.3931 13.9557 78.2682 14.1377 78.1709 14.3535C78.0778 14.5693 78.0101 14.7979 77.9678 15.0391C77.9297 15.2803 77.9106 15.494 77.9106 15.6802C77.9106 16.3488 77.9974 16.8397 78.1709 17.1528C78.3486 17.4618 78.5941 17.6162 78.9072 17.6162C79.0342 17.6162 79.1759 17.5802 79.3325 17.5083C79.4891 17.4364 79.6478 17.3369 79.8086 17.21L80.0752 15.3311ZM83.2871 15.9023C83.2871 15.348 83.3887 14.8296 83.5918 14.3472C83.7992 13.8605 84.0827 13.4373 84.4424 13.0776C84.8063 12.7179 85.2337 12.4344 85.7246 12.2271C86.2197 12.0197 86.7572 11.916 87.3369 11.916C87.7305 11.916 88.0669 11.9478 88.3462 12.0112C88.6255 12.0747 88.854 12.1466 89.0317 12.2271C89.2095 12.3032 89.3385 12.3752 89.4189 12.4429C89.5036 12.5063 89.5459 12.5402 89.5459 12.5444C89.5459 12.5698 89.5353 12.6418 89.5142 12.7603C89.4972 12.8745 89.4761 13.0099 89.4507 13.1665C89.4295 13.3188 89.4084 13.4775 89.3872 13.6426C89.3703 13.8034 89.3618 13.943 89.3618 14.0615C89.3618 14.0827 89.3555 14.106 89.3428 14.1313C89.3301 14.1567 89.2962 14.1694 89.2412 14.1694C89.1904 14.1694 89.1164 14.1525 89.019 14.1187C88.9217 14.0806 88.8011 14.0404 88.6572 13.998C88.5176 13.9557 88.3547 13.9176 88.1685 13.8838C87.9865 13.8457 87.7834 13.8267 87.5591 13.8267C87.2798 13.8267 87.028 13.8774 86.8037 13.979C86.5794 14.0763 86.3869 14.2139 86.2261 14.3916C86.0653 14.5651 85.9404 14.7725 85.8516 15.0137C85.7669 15.2549 85.7246 15.5151 85.7246 15.7944C85.7246 16.0864 85.769 16.3361 85.8579 16.5435C85.951 16.7466 86.0737 16.9137 86.2261 17.0449C86.3784 17.1719 86.554 17.265 86.7529 17.3242C86.9518 17.3835 87.1613 17.4131 87.3813 17.4131C87.6353 17.4131 87.8913 17.3792 88.1494 17.3115C88.4076 17.2396 88.6509 17.1401 88.8794 17.0132C88.8879 17.009 88.9048 17.0068 88.9302 17.0068C88.9513 17.0068 88.9661 17.0174 88.9746 17.0386C88.9873 17.0597 88.9937 17.0999 88.9937 17.1592C88.9937 17.2946 88.9937 17.4596 88.9937 17.6543C88.9937 17.8447 88.9915 18.0288 88.9873 18.2065C88.9873 18.38 88.9852 18.5282 88.981 18.6509C88.9767 18.7736 88.9725 18.835 88.9683 18.835C88.8159 18.9365 88.6509 19.019 88.4731 19.0825C88.2954 19.146 88.1113 19.1968 87.9209 19.2349C87.7347 19.2729 87.5464 19.2983 87.356 19.311C87.1655 19.3237 86.9814 19.3301 86.8037 19.3301C86.3086 19.3301 85.8473 19.2476 85.4199 19.0825C84.9925 18.9175 84.6201 18.6847 84.3027 18.3843C83.9896 18.0838 83.742 17.7241 83.5601 17.3052C83.3781 16.882 83.2871 16.4144 83.2871 15.9023ZM93.7988 11.916C94.2008 11.916 94.5648 11.9922 94.8906 12.1445C95.2207 12.2926 95.5021 12.4873 95.7349 12.7285C95.9718 12.9655 96.1538 13.2321 96.2808 13.5283C96.4077 13.8245 96.4712 14.1208 96.4712 14.417C96.4712 14.6794 96.3908 14.9438 96.23 15.2104C96.0692 15.4728 95.8428 15.7098 95.5508 15.9214C95.263 16.133 94.916 16.3044 94.5098 16.4355C94.1035 16.5667 93.6571 16.6323 93.1704 16.6323C92.9165 16.6323 92.6499 16.6069 92.3706 16.5562C92.3875 16.7381 92.4404 16.8947 92.5293 17.0259C92.6182 17.1571 92.7303 17.265 92.8657 17.3496C93.0011 17.4342 93.1535 17.4977 93.3228 17.54C93.4963 17.5781 93.674 17.5972 93.856 17.5972C94.0591 17.5972 94.2537 17.5802 94.4399 17.5464C94.6304 17.5083 94.8123 17.4596 94.9858 17.4004C95.1593 17.3411 95.3265 17.2756 95.4873 17.2036C95.6481 17.1317 95.8005 17.0597 95.9443 16.9878C95.9824 16.9793 96.0142 16.973 96.0396 16.9688C96.0692 16.9603 96.0967 16.9561 96.1221 16.9561C96.1221 16.9561 96.12 16.9899 96.1157 17.0576C96.1157 17.1253 96.1157 17.2205 96.1157 17.3433C96.1157 17.466 96.1136 17.6141 96.1094 17.7876C96.1094 17.9611 96.1073 18.1536 96.103 18.3652C96.1157 18.3864 96.1242 18.4076 96.1284 18.4287C96.1326 18.4499 96.1348 18.4668 96.1348 18.4795C96.1348 18.5303 96.0882 18.5853 95.9951 18.6445C95.902 18.7038 95.7793 18.7651 95.627 18.8286C95.4788 18.8921 95.3075 18.9535 95.1128 19.0127C94.9224 19.0719 94.7277 19.1248 94.5288 19.1714C94.3299 19.2222 94.1374 19.2603 93.9512 19.2856C93.765 19.3153 93.6021 19.3301 93.4624 19.3301C93.0054 19.3301 92.561 19.2497 92.1294 19.0889C91.702 18.9323 91.3211 18.7059 90.9868 18.4097C90.6567 18.1134 90.3923 17.7537 90.1934 17.3306C89.9945 16.9074 89.895 16.4313 89.895 15.9023C89.895 15.348 89.9902 14.8296 90.1807 14.3472C90.3711 13.8605 90.6377 13.4373 90.9805 13.0776C91.3275 12.7179 91.7401 12.4344 92.2183 12.2271C92.6965 12.0197 93.2233 11.916 93.7988 11.916ZM93.7227 13.6045C93.5492 13.6045 93.3883 13.6426 93.2402 13.7188C93.0964 13.7907 92.9631 13.8965 92.8403 14.0361C92.7218 14.1715 92.6182 14.3366 92.5293 14.5312C92.4404 14.7217 92.3685 14.9333 92.3135 15.166C92.7493 15.0898 93.1112 15.0094 93.3989 14.9248C93.6867 14.8402 93.9173 14.7555 94.0908 14.6709C94.2643 14.582 94.387 14.4953 94.459 14.4106C94.5309 14.3218 94.5669 14.2371 94.5669 14.1567C94.5669 14.0806 94.5373 14.0086 94.478 13.9409C94.423 13.8732 94.3532 13.814 94.2686 13.7632C94.1839 13.7124 94.0908 13.6743 93.9893 13.6489C93.8919 13.6193 93.8031 13.6045 93.7227 13.6045Z" fill="url(#paint1_radial_5_13)"/>
<defs>
<linearGradient id="paint0_linear_5_13" x1="50" y1="0" x2="50" y2="30" gradientUnits="userSpaceOnUse">
<stop stop-color="#8FC3E9"/>
<stop offset="1" stop-color="#0094FF"/>
</linearGradient>
<radialGradient id="paint1_radial_5_13" cx="0" cy="0" r="1" gradientUnits="userSpaceOnUse" gradientTransform="translate(50 15) rotate(90) scale(15 50)">
<stop stop-color="white"/>
<stop offset="1" stop-color="white" stop-opacity="0.85"/>
</radialGradient>
</defs>
</svg>
